<?xml version="1.0" standalone="no"?><!DOCTYPE svg PUBLIC "-//W3C//DTD SVG 1.1//EN" "http://www.w3.org/Graphics/SVG/1.1/DTD/svg11.dtd"><svg t="1585979749688" class="icon" viewBox="0 0 1024 1024" version="1.1" xmlns="http://www.w3.org/2000/svg" p-id="1179" xmlns:xlink="http://www.w3.org/1999/xlink" width="200" height="200"><defs><style type="text/css"></style></defs><path d="M966.776471 602.352941c-15.058824-3.011765-30.117647-12.047059-42.164706-24.094117-18.070588-18.070588-27.105882-39.152941-27.105883-66.258824 0-24.094118 9.035294-48.188235 27.105883-66.258824 12.047059-12.047059 24.094118-21.082353 42.164706-24.094117l27.105882-9.035294-6.023529-27.105883c-6.023529-21.082353-12.047059-42.164706-21.082353-63.247058-9.035294-21.082353-18.070588-39.152941-30.117647-57.22353l-15.058824-24.094118-24.094118 15.058824c-15.058824 9.035294-30.117647 12.047059-45.17647 12.047059-24.094118 0-48.188235-9.035294-63.247059-27.105883-18.070588-18.070588-27.105882-39.152941-27.105882-63.247058 0-15.058824 3.011765-30.117647 12.047058-45.176471l9.035295-30.117647-24.094118-15.058824c-18.070588-12.047059-39.152941-21.082353-60.235294-30.117647-21.082353-9.035294-42.164706-15.058824-63.247059-21.082353l-27.105882-6.023529-6.02353 27.105882c-3.011765 15.058824-12.047059 30.117647-24.094117 39.152942-33.129412 33.129412-93.364706 33.129412-129.505883 0-12.047059-12.047059-18.070588-24.094118-24.094117-39.152942l-9.035295-27.105882-27.105882 6.023529c-21.082353 6.023529-42.164706 12.047059-63.247059 21.082353-21.082353 9.035294-42.164706 18.070588-60.235294 30.117647l-24.094118 15.058824 15.058824 24.094118c9.035294 15.058824 12.047059 30.117647 12.047059 45.17647 0 24.094118-9.035294 48.188235-27.105883 63.247059-18.070588 21.082353-42.164706 30.117647-66.258823 30.117647-15.058824 0-30.117647-3.011765-45.176471-12.047059L102.4 240.941176l-15.058824 24.094118c-9.035294 18.070588-21.082353 36.141176-30.117647 60.235294-9.035294 21.082353-15.058824 42.164706-21.082353 63.247059l-6.023529 27.105882 27.105882 6.02353c15.058824 3.011765 30.117647 12.047059 39.152942 24.094117 18.070588 18.070588 27.105882 42.164706 27.105882 66.258824 0 24.094118-9.035294 48.188235-27.105882 63.247059-12.047059 12.047059-24.094118 21.082353-42.164706 24.094117l-24.094118 9.035295 9.035294 27.105882c6.023529 21.082353 12.047059 39.152941 18.070588 54.211765l3.011765 9.035294c9.035294 21.082353 18.070588 39.152941 30.117647 60.235294l12.047059 24.094118 24.094118-15.058824c15.058824-9.035294 27.105882-12.047059 45.17647-12.047059 24.094118 0 48.188235 9.035294 66.258824 27.105883 18.070588 18.070588 27.105882 39.152941 27.105882 63.247058 0 15.058824-3.011765 33.129412-12.047059 45.176471l-12.047059 30.117647 24.094118 15.058824c21.082353 12.047059 39.152941 21.082353 60.235294 30.117647 21.082353 9.035294 42.164706 15.058824 60.235294 21.082353l27.105883 9.035294 9.035294-27.105883c3.011765-15.058824 12.047059-30.117647 24.094117-42.164706 36.141176-33.129412 93.364706-33.129412 129.505883 0 12.047059 12.047059 21.082353 24.094118 24.094117 42.164706l9.035295 27.105883 27.105882-9.035294c21.082353-6.023529 42.164706-12.047059 60.235294-21.082353 21.082353-9.035294 42.164706-18.070588 60.235294-30.117647l24.094118-15.058824-12.047059-24.094118c-9.035294-15.058824-12.047059-30.117647-12.047059-45.17647 0-24.094118 9.035294-48.188235 27.105883-63.247059 18.070588-18.070588 39.152941-27.105882 63.247058-27.105882 15.058824 0 33.129412 3.011765 45.176471 12.047058l24.094118 15.058824 15.058823-24.094118c12.047059-21.082353 21.082353-39.152941 30.117647-60.235294 9.035294-21.082353 15.058824-42.164706 21.082353-63.247059l9.035294-27.105882-24.094117-12.047059z m-57.22353 75.294118c-3.011765 9.035294-9.035294 18.070588-12.047059 30.117647-15.058824-6.023529-30.117647-6.023529-48.188235-6.02353-39.152941 0-78.305882 15.058824-105.411765 45.176471-27.105882 27.105882-45.176471 66.258824-45.17647 105.411765 0 15.058824 3.011765 33.129412 6.023529 48.188235-9.035294 6.023529-18.070588 9.035294-30.117647 12.047059-9.035294 3.011765-21.082353 9.035294-30.117647 12.047059-6.023529-15.058824-18.070588-27.105882-30.117647-39.152941-27.105882-27.105882-66.258824-42.164706-105.411765-42.164706-39.152941 0-78.305882 15.058824-105.411764 42.164706-12.047059 12.047059-21.082353 24.094118-30.117647 39.152941-9.035294-3.011765-21.082353-6.023529-30.117648-12.047059-9.035294-3.011765-18.070588-9.035294-30.117647-12.047059 6.023529-15.058824 6.023529-30.117647 6.02353-48.188235 0-39.152941-15.058824-78.305882-45.176471-105.411765-27.105882-27.105882-66.258824-45.176471-105.411764-45.176471-15.058824 0-33.129412 3.011765-48.188236 6.02353-3.011765-9.035294-9.035294-15.058824-12.047059-24.094118l-3.011764-6.023529-9.035294-27.105883c15.058824-9.035294 27.105882-18.070588 39.152941-30.117647 27.105882-30.117647 42.164706-66.258824 42.164706-105.411764 0-39.152941-15.058824-78.305882-42.164706-105.411765-12.047059-12.047059-24.094118-21.082353-39.152941-30.117647 3.011765-9.035294 6.023529-18.070588 12.047058-30.117647 3.011765-9.035294 9.035294-21.082353 12.047059-30.117647 15.058824 6.023529 30.117647 6.023529 48.188236 6.023529 39.152941 0 78.305882-15.058824 105.411764-45.17647 27.105882-27.105882 45.176471-66.258824 45.176471-105.411765 0-15.058824-3.011765-33.129412-6.02353-48.188235 9.035294-6.023529 18.070588-9.035294 30.117647-12.047059 9.035294-3.011765 21.082353-9.035294 30.117648-12.047059 6.023529 15.058824 18.070588 27.105882 30.117647 39.152941 27.105882 27.105882 66.258824 42.164706 105.411764 42.164706 39.152941 0 78.305882-15.058824 105.411765-42.164706 12.047059-12.047059 21.082353-24.094118 30.117647-39.152941 9.035294 3.011765 21.082353 6.023529 30.117647 12.047059 9.035294 3.011765 21.082353 9.035294 30.117647 12.047059-6.023529 15.058824-6.023529 33.129412-6.023529 48.188235 0 39.152941 15.058824 78.305882 45.17647 105.411765 27.105882 27.105882 66.258824 45.176471 105.411765 45.17647 15.058824 0 33.129412-3.011765 48.188235-6.023529 6.023529 9.035294 9.035294 18.070588 12.047059 30.117647 3.011765 9.035294 9.035294 21.082353 12.047059 30.117647-15.058824 6.023529-27.105882 18.070588-39.152941 30.117647-27.105882 30.117647-42.164706 66.258824-42.164706 105.411765 0 39.152941 15.058824 78.305882 42.164706 105.411764 12.047059 12.047059 24.094118 21.082353 39.152941 27.105883-3.011765 9.035294-6.023529 18.070588-12.047059 30.117647z" fill="#2c2c2c" p-id="1180"></path><path d="M512 331.294118c-99.388235 0-180.705882 81.317647-180.705882 180.705882s81.317647 180.705882 180.705882 180.705882 180.705882-81.317647 180.705882-180.705882-81.317647-180.705882-180.705882-180.705882z m0 301.17647c-66.258824 0-120.470588-54.211765-120.470588-120.470588s54.211765-120.470588 120.470588-120.470588 120.470588 54.211765 120.470588 120.470588-54.211765 120.470588-120.470588 120.470588z" fill="#2c2c2c" p-id="1181"></path></svg>